<svg xmlns="http://www.w3.org/2000/svg" viewBox="0 0 150 121.4">
<!-- SVG created with Arrow, by QuiverAI (https://quiver.ai) -->
  <style type="text/css">.cls-1 {fill:#FFFFFF;}
.cls-2 {fill:#94E516;}</style>
  <path class="cls-1" d="m83.7 12.4v8.9c15.7 2.1 29.3 12.7 38.6 22.1 6.7 6.7 11.7 12.9 14.2 16.4l-0.1 0.2 0.1 1.3c-4.1 6.2-24.5 34.8-52.8 41.6v9.1c33.9-4.6 55.3-33.6 64.7-48.4l0.1-2.2-0.1-0.2c-6.7-10.1-28.4-41.2-57.1-47.5-2.5-0.6-5.1-1-7.6-1.3z"/>
  <path class="cls-1" d="m66.1 12.4c-23 2.5-42.8 18.7-58.4 38.9-1.8 2.4-6 8.3-6.1 8.4l-0.5 0.9 0.6 0.8c9.7 15.3 31.8 44.2 64.3 50.6v-9c-21.6-4.4-39.9-24.2-52.2-41.6 7.2-9.5 28-34.9 52.3-39.8v-9.2z"/>
  <path class="cls-1" d="m70.3 1.5v27c-12.3 1.5-24.3 10.8-26.5 27.9h-16.2v9.4h16.1c1.5 13.3 11.8 25.4 26.2 28l0.4 0.1v25.7h9v-25.7c11.3-1.2 24.7-9.7 26.7-28.1h16.2v-9.4h-16.2c-1.7-14.1-12.8-25.8-25.9-27.8l-0.8-0.1v-27h-9zm0.3 35.3v6.6h8.2v-6.6c8.1 0.7 17.5 8.5 19.2 20.1h-5.9v8.4h5.8c-1 9.3-9.3 18.1-19.1 19.5v-6.2h-8.2v6.2c-7.9-0.9-17-8.4-18.6-19.5h5.9v-8.3h-5.8c1.2-8.8 9.2-18.7 18.5-20.2z"/>
  <path class="cls-2" d="m74.9 49.9c-5.4 0-10.8 4.5-10.8 11.4 0 5.6 4.2 11.3 10.8 11.3 6 0 10.7-4.7 10.7-11.2 0-5.8-4.5-11.4-10.7-11.5z"/>
</svg>
